:SAMPLES-PER-SECOND 30
:FULLY-SPECIFIED
:DEGREES
279
root  27.1181 37.1159 8.39774 172.079 31.2456 178.264
RightUpLeg  -5.79198 -17.7037 -12.774
RightLeg  59.2137 7.15958 12.1802
RightFoot  9.3054 -6.13077 33.132
RightToes  -5.8209e-011 0 -3.6325e-017
Spine  8.67994 5.81001 -3.08783
Spine1  6.64766 4.42036 3.33441
HEad  3.46664 21.7796 -5.13252
LeftShoulder1  0.960682 12.985 21.1309
LeftArm  -74.6125 -18.0022 -7.61418
LeftForeArm  74.5154 -76.0546 -114.014
LeftHand  -1.01926 -0.132412 21.3675
RightShoulder  0.651643 -8.70749 -23.7072
RightArm  -78.4515 14.6384 16.2892
RightForeArm  134.464 58.7254 160.549
RightHand  -3.96013 8.94304 -31.5967
LeftUpLeg  -12.2756 -20.8152 -12.883
LeftLeg  34.992 5.63669 4.52658
LeftFoot  -10.966 0.0150397 10.3135
LeftToes  6.82088e-011 -2.45093e-011 5.71991e-013
280
root  28.103 36.7435 8.45723 170.334 29.0753 176.746
RightUpLeg  -5.74596 -16.1139 -16.3255
RightLeg  61.5333 2.29341 4.15933
RightFoot  5.97157 -4.64304 30.0649
RightToes  -5.8209e-011 0 -3.6325e-017
Spine  7.03156 6.50485 -5.83406
Spine1  8.69915 4.55995 4.84265
HEad  3.14809 19.1173 -4.30847
LeftShoulder1  1.02707 12.2435 22.9387
LeftArm  -67.5447 -23.2478 -7.05685
LeftForeArm  -2.54877 -68.038 -29.8993
LeftHand  -1.39636 -1.88672 22.2713
RightShoulder  0.658091 -8.38757 -24.7971
RightArm  -70.9936 20.2796 18.2436
RightForeArm  119.675 71.6707 141.215
RightHand  -4.29675 9.34262 -33.2452
LeftUpLeg  -11.658 -21.2579 -13.6696
LeftLeg  37.9752 3.34257 3.20511
LeftFoot  -13.6263 0.261371 8.81039
LeftToes  6.82088e-011 -2.45093e-011 5.71991e-013
281
root  28.8996 37.1137 8.46743 169.897 27.5868 176.975
RightUpLeg  -5.13051 -14.4844 -17.5581
RightLeg  59.0551 -2.73605 -5.24283
RightFoot  3.37896 -3.12621 24.0307
RightToes  -5.8209e-011 0 -3.6325e-017
Spine  4.96328 6.56116 -5.24986
Spine1  10.6655 4.84273 4.99798
HEad  4.73667 17.5131 -3.75308
LeftShoulder1  1.07199 12.1291 23.7184
LeftArm  -57.7979 -26.3809 -9.30759
LeftForeArm  -15.846 -53.3961 -15.5198
LeftHand  -1.54553 -2.55388 22.6
RightShoulder  0.497342 -6.89788 -25.9644
RightArm  -63.6973 23.725 20.7995
RightForeArm  49.9507 78.403 70.2577
RightHand  -4.57145 9.75068 -34.3387
LeftUpLeg  -9.64841 -19.6022 -12.4568
LeftLeg  36.1817 0.697947 0.942375
LeftFoot  -12.5789 0.160313 7.91105
LeftToes  6.82088e-011 -2.45093e-011 5.71991e-013
282
root  29.5021 38.0083 8.51104 171.065 25.9202 178.994
RightUpLeg  -3.91083 -13.2894 -16.2431
RightLeg  51.6175 -6.84268 -9.59592
RightFoot  1.55087 -2.13772 18.9498
RightToes  -5.8209e-011 0 -3.6325e-017
Spine  4.76432 6.14582 -1.41409
Spine1  9.86625 5.36779 3.31807
HEad  7.24631 16.6531 -3.88968
LeftShoulder1  0.89822 11.6876 22.0452
LeftArm  -54.1834 -25.999 -12.6208
LeftForeArm  -11.9039 -55.8237 -17.8797
LeftHand  -1.49265 -2.95925 20.8309
RightShoulder  0.297214 -5.6003 -25.2238
RightArm  -59.5845 24.2054 22.3247
RightForeArm  14.9199 72.3583 36.9115
RightHand  -4.7395 10.0077 -34.9652
LeftUpLeg  -7.11541 -20.1817 -9.64985
LeftLeg  31.3361 -0.232908 0.189764
LeftFoot  -9.19006 -0.0717728 6.93295
LeftToes  6.82088e-011 -2.45093e-011 5.71991e-013
283
root  30.0635 38.9825 8.71941 173.515 23.121 -178.958
RightUpLeg  -2.91138 -12.453 -13.9605
RightLeg  40.5531 -7.75003 -7.45724
RightFoot  1.74339 -2.1948 19.0139
RightToes  -5.8209e-011 0 -3.6325e-017
Spine  5.82155 5.76621 1.55725
Spine1  6.94531 5.63669 1.904
HEad  7.50524 15.1018 -2.84567
LeftShoulder1  0.549359 10.5974 18.4329
LeftArm  -57.7969 -21.9515 -13.9702
LeftForeArm  7.5891 -70.3022 -36.5016
LeftHand  -1.19673 -2.68495 17.2135
RightShoulder  0.213674 -5.47681 -21.7698
RightArm  -59.5528 21.9137 21.3169
RightForeArm  24.8587 75.0201 49.0853
RightHand  -4.60421 9.74886 -34.5641
LeftUpLeg  -6.40443 -23.3013 -6.38718
LeftLeg  26.1538 -0.673161 -0.00857594
LeftFoot  -3.97934 -0.259933 4.55753
LeftToes  6.82088e-011 -2.45093e-011 5.71991e-013
284
root  30.7084 39.7364 9.05178 176.64 18.9312 -177.926
RightUpLeg  -2.91682 -11.091 -11.8223
RightLeg  28.888 -5.02391 -3.21951
RightFoot  5.84088 -3.31547 21.9237
RightToes  -5.8209e-011 0 -3.6325e-017
Spine  6.15649 5.43414 1.25078
Spine1  4.1558 5.08288 2.81524
HEad  5.99687 13.0162 -2.63786
LeftShoulder1  0.337505 9.98416 15.63
LeftArm  -63.0904 -16.3471 -13.0398
LeftForeArm  67.4766 -78.2276 -103.058
LeftHand  -0.735993 -0.893548 13.8234
RightShoulder  0.195007 -6.16017 -17.7836
RightArm  -62.8696 18.0368 18.1424
RightForeArm  76.7817 78.383 102.423
RightHand  -4.16591 9.24785 -32.4771
LeftUpLeg  -8.40092 -24.2885 -3.02618
LeftLeg  22.1693 -2.37517 -0.724777
LeftFoot  1.53404 -0.155766 1.29121
LeftToes  6.82088e-011 -2.45093e-011 5.71991e-013
285
root  31.3781 40.1682 9.36712 179.499 14.1632 -177.435
RightUpLeg  -3.58401 -7.90165 -10.0082
RightLeg  20.0237 -1.81942 -1.01037
RightFoot  11.4163 -4.62029 23.1186
RightToes  -5.8209e-011 0 -3.6325e-017
Spine  5.5949 4.84307 -0.332828
Spine1  2.55523 3.87335 5.47082
HEad  4.04796 11.5525 -3.48738
LeftShoulder1  0.357037 10.9528 15.0885
LeftArm  -68.4924 -12.0408 -11.5382
LeftForeArm  100.014 -70.505 -143.891
LeftHand  -0.589762 0.535582 14.152
RightShoulder  0.200522 -6.876 -16.2194
RightArm  -67.5362 14.0886 15.2685
RightForeArm  117.819 71.3676 144.021
RightHand  -3.77368 8.79631 -30.4988
LeftUpLeg  -11.1669 -20.0315 -0.310044
LeftLeg  19.8014 -3.52687 -1.10168
LeftFoot  4.88347 0.134104 -1.19281
LeftToes  6.82088e-011 -2.45093e-011 5.71991e-013
286
root  31.9907 40.2159 9.63785 -178.973 9.66644 -177.101
RightUpLeg  -3.84919 -4.53391 -8.83463
RightLeg  15.8829 1.06032 -0.602397
RightFoot  12.6982 -4.79275 22.6538
RightToes  -5.8209e-011 0 -3.6325e-017
Spine  5.47061 4.04717 -0.906074
Spine1  1.73092 2.66875 7.51325
HEad  2.64967 11.2543 -4.8082
LeftShoulder1  0.464806 12.5989 15.4578
LeftArm  -73.7011 -10.1769 -10.4797
LeftForeArm  105.61 -64.112 -153.885
LeftHand  -0.588292 1.07347 15.7933
RightShoulder  0.27484 -7.58388 -17.1575
RightArm  -72.089 11.3454 13.9008
RightForeArm  130.248 63.004 156.866
RightHand  -3.76951 8.67082 -30.7066
LeftUpLeg  -12.9732 -13.8359 0.750786
LeftLeg  20.4214 -0.380628 0.208715
LeftFoot  4.48263 0.309693 -2.43383
LeftToes  6.82088e-011 -2.45093e-011 5.71991e-013
287
root  32.5843 39.8569 9.92005 -179.066 5.50089 -176.999
RightUpLeg  -3.01391 -3.7742 -8.30519
RightLeg  16.0312 3.27105 -0.413582
RightFoot  7.38484 -3.71507 22.6106
RightToes  -5.8209e-011 0 -3.6325e-017
Spine  6.52632 3.34425 -0.572578
Spine1  0.825049 1.92937 8.11469
HEad  2.22241 11.1481 -5.90691
LeftShoulder1  0.511042 12.9041 15.8244
LeftArm  -76.1969 -10.2523 -9.86916
LeftForeArm  106.614 -64.2634 -153.743
LeftHand  -0.622601 0.932762 16.2269
RightShoulder  0.40293 -8.55856 -18.5903
RightArm  -75.5095 10.5823 13.0231
RightForeArm  134.895 57.4629 161.621
RightHand  -3.95984 8.90221 -31.6815
LeftUpLeg  -13.9762 -9.79434 0.746564
LeftLeg  24.9368 5.29037 3.04726
LeftFoot  0.652293 0.345493 -3.3714
LeftToes  6.82088e-011 -2.45093e-011 5.71991e-013
288
root  33.2218 39.1015 10.2437 179.621 1.78912 -177.048
RightUpLeg  -1.94374 -3.4208 -7.85663
RightLeg  19.6269 1.86232 0.0455612
RightFoot  -1.88433 -1.90935 22.5224
RightToes  -5.8209e-011 0 -3.6325e-017
Spine  8.41667 2.95864 -0.259565
Spine1  -0.206484 1.69692 8.09712
HEad  2.18211 10.0477 -5.9081
LeftShoulder1  0.52941 11.3576 17.3795
LeftArm  -72.9383 -11.9529 -9.23644
LeftForeArm  90.4428 -73.5849 -131.245
LeftHand  -0.818092 -0.186249 17.0363
RightShoulder  0.559065 -9.57448 -19.9882
RightArm  -75.7724 11.9039 12.2613
RightForeArm  136.119 58.7703 160.654
RightHand  -4.04792 9.17134 -31.7829
LeftUpLeg  -14.4498 -7.60784 0.687878
LeftLeg  32.0593 7.05837 5.02229
LeftFoot  -5.63831 0.251522 -4.38443
LeftToes  6.82088e-011 -2.45093e-011 5.71991e-013
289
root  33.8508 38.1355 10.5835 177.643 -0.990082 -176.816
RightUpLeg  -1.74904 -3.6172 -6.48057
RightLeg  25.4994 -0.756512 -0.600259
RightFoot  -10.9552 -0.153214 20.7442
RightToes  -5.8209e-011 0 -3.6325e-017
Spine  10.0937 2.76992 0.300825
Spine1  -0.116851 1.71991 7.8704
HEad  0.996504 8.41566 -4.58046
LeftShoulder1  0.580644 9.51217 20.622
LeftArm  -65.7889 -15.0331 -8.1299
LeftForeArm  17.578 -74.7183 -50.1971
LeftHand  -1.21226 -1.90265 19.3482
RightShoulder  0.722256 -9.97359 -22.2184
RightArm  -72.7001 14.5296 12.574
RightForeArm  130.88 67.4668 151.224
RightHand  -4.21024 9.396 -32.4951
LeftUpLeg  -14.207 -5.88581 1.34647
LeftLeg  38.5329 4.18943 3.91658
LeftFoot  -13.5361 0.0161743 -4.07545
LeftToes  6.82088e-011 -2.45093e-011 5.71991e-013
290
root  34.3464 37.3654 10.874 175.707 -3.20358 -176.142
RightUpLeg  -1.69385 -3.65456 -4.44112
RightLeg  30.3476 -3.71902 -2.58807
RightFoot  -16.9398 0.808393 18.5663
RightToes  -5.8209e-011 0 -3.6325e-017
Spine  10.3509 2.32207 1.36379
Spine1  2.13892 1.42459 7.48391
HEad  -0.492456 8.36827 -5.19594
LeftShoulder1  0.666321 8.89319 23.6213
LeftArm  -58.5133 -18.1045 -7.82739
LeftForeArm  -7.47197 -59.472 -19.0437
LeftHand  -1.63324 -3.33951 21.7741
RightShoulder  0.796517 -9.45696 -24.6817
RightArm  -69.5784 17.0411 14.3722
RightForeArm  107.941 76.4436 126.984
RightHand  -4.6277 9.71335 -34.808
LeftUpLeg  -13.4737 -4.59154 2.72676
LeftLeg  42.0786 0.901723 1.29119
LeftFoot  -20.5294 -0.052522 -2.17425
LeftToes  6.82088e-011 -2.45093e-011 5.71991e-013
291
root  34.653 37.1136 11.048 174.619 -6.17383 -175.5
RightUpLeg  -0.813891 -4.48046 -3.03425
RightLeg  31.5429 -6.11731 -4.27557
RightFoot  -19.0212 1.10466 18.2244
RightToes  -5.8209e-011 0 -3.6325e-017
Spine  8.96607 1.42033 1.88249
Spine1  5.4934 0.375082 7.53439
HEad  -2.18578 8.93775 -6.12301
LeftShoulder1  0.734495 9.26443 24.139
LeftArm  -55.285 -19.2122 -10.0579
LeftForeArm  -5.31264 -55.9486 -16.9679
LeftHand  -1.89466 -4.20889 22.9472
RightShoulder  0.69709 -8.48047 -25.3019
RightArm  -68.2133 18.4035 17.0338
RightForeArm  82.4525 78.6628 104.602
RightHand  -4.9372 9.9042 -36.5487
LeftUpLeg  -12.9671 -4.17704 3.8994
LeftLeg  42.2738 -0.630617 -0.20863
LeftFoot  -23.7656 0.044941 -0.846186
LeftToes  6.82088e-011 -2.45093e-011 5.71991e-013
292
root  34.788 37.4228 11.0818 174.804 -10.0997 -175.509
RightUpLeg  0.634466 -6.75004 -2.994
RightLeg  29.0965 -7.59377 -4.79488
RightFoot  -17.2484 0.879882 19.2072
RightToes  -5.8209e-011 0 -3.6325e-017
Spine  7.04974 0.6161 1.0028
Spine1  7.46591 -0.856135 8.37051
HEad  -2.75518 8.60998 -5.75746
LeftShoulder1  0.609071 9.22129 21.6929
LeftArm  -56.6615 -17.9414 -14.0017
LeftForeArm  7.78157 -66.979 -29.3608
LeftHand  -1.85545 -4.27003 22.3177
RightShoulder  0.491859 -7.62914 -22.9692
RightArm  -67.3196 17.9734 19.3044
RightForeArm  96.5177 76.8796 121.022
RightHand  -4.89764 9.90188 -36.2721
LeftUpLeg  -12.7091 -4.11507 3.9836
LeftLeg  39.5117 -0.500912 -0.072028
LeftFoot  -23.1895 -0.0120742 -1.49287
LeftToes  6.82088e-011 -2.45093e-011 5.71991e-013
